<svg xmlns="http://www.w3.org/2000/svg" width="215" height="381"><defs><clipPath id="a"><rect x="-113.75" y="-258.667" width="214.5" height="381.333" stroke="#000" fill="none"/></clipPath></defs><g transform="translate(114 258.5)" fill="none"><circle r="26.406" stroke="#dc44db"/><rect x="-23.402" y="-23.402" width="46.804" height="46.804" stroke="#ad1d79"/><circle r="23.402" stroke="#2ae0d4"/><rect x="23.402" y="-76.214" width="52.813" height="52.813" stroke="#ad1d79"/><circle cx="49.808" cy="-49.808" r="26.406" stroke="#2ae0d4"/><rect x="23.402" y="23.402" width="52.813" height="52.813" stroke="#ad1d79"/><circle cx="49.808" cy="49.808" r="26.406" stroke="#2ae0d4"/><circle cx="-23.402" cy="23.402" r="6.154" stroke="#ad1d79"/><circle cx="-23.402" cy="-143.461" r="69.316" stroke="#006617"/><circle cx="45.914" cy="-23.402" r="69.316" stroke="#006617" clip-path="url(#a)"/><line x1="-23.402" y1="-143.461" x2="45.914" y2="-23.402" stroke="#82ca01"/><line x1="45.914" y1="-23.402" x2="-23.402" y2="-23.402" stroke="#82ca01"/><line x1="-23.402" y1="-23.402" x2="-23.402" y2="-143.461" stroke="#82ca01"/><line x1="-89.507" y1="-164.314" x2="-23.402" y2="-143.461" stroke="#1ad479"/><line x1="-23.402" y1="-143.461" x2="11.256" y2="-83.432" stroke="#1ad479"/><rect x="-89" y="-212" width="165" height="288" stroke="#6858f0"/><path stroke="#22164c" stroke-opacity=".8" stroke-width="12.308" d="M-89.507-164.314a69.316 69.316 0 1 1 100.764 80.883 69.316 69.316 0 0 0-34.658 60.03h73.21a26.406 26.406 0 1 0-26.406-26.406v99.616a26.406 26.406 0 1 0 26.406-26.406h-26.406"/><path stroke="#22164c" stroke-opacity=".8" stroke-width="12.308" d="M-17.248 17.248h-6.154a6.154 6.154 0 1 0 6.154 6.154z"/></g></svg>